<?xml version="1.0" encoding="utf-8"?>
<!-- Generator: Adobe Illustrator 16.0.0, SVG Export Plug-In . SVG Version: 6.00 Build 0)  -->
<!DOCTYPE svg PUBLIC "-//W3C//DTD SVG 1.1//EN" "http://www.w3.org/Graphics/SVG/1.1/DTD/svg11.dtd">
<svg version="1.1" id="Layer_1" xmlns="http://www.w3.org/2000/svg" xmlns:xlink="http://www.w3.org/1999/xlink" x="0px" y="0px"
	 width="196.628px" height="37.321px" viewBox="0 0 196.628 37.321" enable-background="new 0 0 196.628 37.321"
	 xml:space="preserve">
<path fill="#0069B5" d="M0,18.82v18.229h9.488c0.088-0.637,0.629-4.114,2.377-7.923C4.399,25.173,0.428,19.458,0,18.82z"/>
<path fill="#241B1C" d="M0,8.312c0.004-0.006,0.008-0.011,0.012-0.018c0.982-1.493,2.277-2.616,3.694-3.462
	C8.565,1.93,14.855,2.299,14.855,2.299c5.839,0,10.883,1.065,15.064,2.533c8.79,3.085,13.757,7.945,14.246,8.438h0.01h0.001V0.289
	H0.012"/>
<path fill="#0069B5" d="M44.12,13.271c-0.021-0.01-0.041-0.02-0.061-0.03C31.12,6.745,21.928,6.805,21.928,6.805
	c-15.397,0-14.771,9.764-14.771,9.764c0,3.509,2.893,6.732,6.452,9.37c2.677-4.095,7.008-7.742,13.952-7.742
	c0,0-6.433,2.776-9.319,10.715c4.431,2.494,8.505,3.993,8.505,3.993c-3.414-0.037-6.495-0.582-9.257-1.431
	c-0.383,1.672-0.626,3.51-0.63,5.574h27.316V13.298C44.157,13.289,44.138,13.28,44.12,13.271z"/>
<path fill="#FFFFFF" d="M9.473,37.161l7.386-0.064c0-0.016,0.001-0.032,0.001-0.048H9.488C9.478,37.116,9.473,37.161,9.473,37.161z"
	/>
<path fill="#0069B5" d="M59.635,27.855l-0.75,0.733c-1.562,1.528-2.515,2.338-3.083,2.766c0.219-1.329,0.923-4.259,2.945-10.714
	c1.946-6.194,1.946-6.832,1.946-7.174c0-0.807-0.318-1.491-0.921-1.983c-0.541-0.437-1.265-0.659-2.153-0.659
	c-1.334,0-2.856,0.469-4.652,1.434c-1.709,0.918-3.603,2.461-5.626,4.584l-0.875,0.917l3.068,2.372l0.71-0.67
	c2.003-1.892,2.772-2.501,3.065-2.696c-2.963,9.137-4.404,14.771-4.404,17.22c0,1.003,0.314,1.82,0.933,2.426
	c0.613,0.604,1.421,0.909,2.403,0.909c0.973,0,2.126-0.378,3.527-1.158c1.302-0.729,3.26-2.301,5.984-4.807l0.946-0.87
	L59.635,27.855z"/>
<path fill="#241B1C" d="M94.869,33.601c-1.987,1.112-3.908,1.905-5.759,2.377c-1.852,0.471-3.975,0.706-6.367,0.706
	c-4.79,0-8.72-1.354-11.791-4.069c-3.071-2.714-4.606-5.941-4.606-9.684c0-3.738,1.524-6.991,4.573-9.757
	c3.049-2.763,6.966-4.146,11.755-4.146c2.348,0,4.538,0.321,6.571,0.962c2.032,0.641,3.861,1.484,5.489,2.527l-3.794,3.187
	c-1.176-1.079-2.441-1.879-3.796-2.402c-1.355-0.522-2.846-0.784-4.471-0.784c-2.711,0-5.016,0.979-6.912,2.933
	c-1.897,1.955-2.845,4.45-2.845,7.481c0,2.125,0.847,4.358,2.54,6.701c1.693,2.344,4.212,3.514,7.555,3.514
	c1.581,0,3.14-0.235,4.676-0.708c1.535-0.472,2.935-1.229,4.2-2.276L94.869,33.601z"/>
<path fill="#241B1C" d="M123.832,13.123c2.913,2.73,4.37,6,4.37,9.808c0,3.742-1.47,6.979-4.403,9.709
	c-2.938,2.731-6.774,4.096-11.517,4.096c-4.834,0-8.709-1.364-11.621-4.096c-2.912-2.729-4.369-5.967-4.369-9.709
	c0-3.773,1.457-7.035,4.369-9.783c2.912-2.747,6.787-4.121,11.621-4.121C117.067,9.027,120.918,10.394,123.832,13.123z
	 M119.089,30.391c1.649-2.038,2.474-4.524,2.474-7.46c0-2.964-0.824-5.467-2.474-7.507c-1.649-2.039-3.917-3.06-6.808-3.06
	c-2.893,0-5.162,1.021-6.812,3.06c-1.648,2.04-2.472,4.543-2.472,7.507c0,2.936,0.812,5.422,2.439,7.46
	c1.626,2.038,3.906,3.058,6.844,3.058C115.172,33.448,117.44,32.429,119.089,30.391z"/>
<path fill="#241B1C" d="M160.687,13.326c2.912,2.63,4.371,5.831,4.371,9.604c0,3.71-1.424,6.852-4.271,9.431
	c-2.846,2.578-6.752,3.866-11.72,3.866h-12.804V12.416l-3.861-1.365l0.947-1.669h15.785
	C153.923,9.382,157.774,10.697,160.687,13.326z M155.842,30.213c1.808-1.854,2.711-4.281,2.711-7.282
	c0-2.931-0.871-5.392-2.609-7.381c-1.739-1.987-4.077-2.982-7.012-2.982h-6.435v20.425h6.028
	C151.597,32.992,154.036,32.066,155.842,30.213z"/>
<path fill="#241B1C" d="M173.052,36.228V12.364l-3.862-1.263l0.88-1.719h25.271v3.388h-15.989v7.735h15.516v3.288h-15.516v8.997
	h17.276v3.438H173.052z"/>
<circle fill="#0069B5" cx="59.183" cy="3.896" r="3.76"/>
</svg>
